<svg width="110" height="39" viewBox="0 0 211 56" fill="none" xmlns="http://www.w3.org/2000/svg">
<rect width="56" height="56" rx="16" fill="#0078E7"/>
<rect width="56" height="56" rx="16" fill="#0046AF" fill-opacity="0.61"/>
<path fill-rule="evenodd" clip-rule="evenodd" d="M26.6166 7.99995C24.4755 8.12537 23.0045 8.57439 21.1193 9.34701C18.8688 10.2325 17.1164 11.5053 15.862 13.1655C14.6076 14.7888 13.9804 16.7442 13.9804 19.0316C13.9804 21.2083 14.5892 23.0899 15.8067 24.6763C16.5313 25.5715 17.4161 26.3435 18.4609 26.9924C16.882 27.781 15.5914 28.7983 14.5892 30.0443C13.261 31.7045 12.5969 33.7337 12.5969 36.1317C12.5969 38.5298 13.2795 40.6328 14.6445 42.4406C16.0096 44.2114 17.9096 45.595 20.3446 46.5911C22.4282 47.4119 24.1336 47.8815 26.6166 48V41.2823C23.9756 40.824 21.6727 39.0186 21.6727 35.855C21.6727 32.7211 23.9756 30.9327 26.6166 30.4788V29.4051V24.9247V24.0129C24.5292 23.4839 22.8902 21.7309 22.8902 19.419C22.8902 16.7955 24.5976 15.3097 26.6166 14.8814V7.99995ZM29.3836 23.9891C31.4498 23.4372 33.1098 21.7211 33.1098 19.419C33.1098 16.9554 31.4025 15.4335 29.3836 14.9332V8.00466C31.528 8.13631 32.9935 8.58376 34.8253 9.34701C37.0758 10.2325 38.8283 11.5053 40.0826 13.1655C41.3739 14.7888 42.0196 16.7442 42.0196 19.0316C42.0196 21.2083 41.3924 23.0899 40.138 24.6763C39.4341 25.5721 38.5576 26.3447 37.5084 26.9939C39.0986 27.7823 40.381 28.7991 41.3555 30.0443C42.7205 31.7045 43.4031 33.7337 43.4031 36.1317C43.4031 38.5298 42.7205 40.6328 41.3555 42.4406C39.9904 44.2114 38.0719 45.595 35.6001 46.5911C33.5431 47.4014 31.8416 47.8694 29.3836 47.9952V41.2772C32.0245 40.8095 34.3272 38.9984 34.3272 35.855C34.3272 32.7414 32.0245 30.9474 29.3836 30.4839V29.4004V24.9289V23.9891Z" fill="white"/>
<path d="M77.8167 47.5C74.8194 47.5 72.1111 46.7417 69.6917 45.225C67.3083 43.7083 65.4306 41.5056 64.0583 38.6167C62.6861 35.6917 62 32.1528 62 28C62 23.8472 62.6861 20.3264 64.0583 17.4375C65.4306 14.5125 67.3083 12.2917 69.6917 10.775C72.1111 9.25833 74.8194 8.5 77.8167 8.5C80.85 8.5 83.5583 9.25833 85.9417 10.775C88.325 12.2917 90.2028 14.5125 91.575 17.4375C92.9833 20.3264 93.6875 23.8472 93.6875 28C93.6875 32.1528 92.9833 35.6917 91.575 38.6167C90.2028 41.5056 88.325 43.7083 85.9417 45.225C83.5583 46.7417 80.85 47.5 77.8167 47.5ZM77.8167 41.3792C79.5861 41.3792 81.1208 40.9097 82.4208 39.9708C83.7208 38.9958 84.7319 37.5153 85.4542 35.5292C86.2125 33.5431 86.5917 31.0333 86.5917 28C86.5917 24.9306 86.2125 22.4208 85.4542 20.4708C84.7319 18.4847 83.7208 17.0222 82.4208 16.0833C81.1208 15.1083 79.5861 14.6208 77.8167 14.6208C76.1194 14.6208 74.6028 15.1083 73.2667 16.0833C71.9667 17.0222 70.9375 18.4847 70.1792 20.4708C69.4569 22.4208 69.0958 24.9306 69.0958 28C69.0958 31.0333 69.4569 33.5431 70.1792 35.5292C70.9375 37.5153 71.9667 38.9958 73.2667 39.9708C74.6028 40.9097 76.1194 41.3792 77.8167 41.3792Z" fill="#050D3D"/>
<path d="M111.667 47.5C108.525 47.5 106.702 47.0306 104.391 46.0917C102.079 45.1528 100.292 43.8347 99.0281 42.1375C97.7642 40.4042 97.1322 38.3819 97.1322 36.0708C97.1322 33.7597 97.7461 31.8097 98.9739 30.2208C100.202 28.6319 101.971 27.4222 104.282 26.5917C106.593 25.7611 108.453 25.3458 111.667 25.3458C114.881 25.3458 116.741 25.7611 119.052 26.5917C121.399 27.4222 123.186 28.65 124.414 30.275C125.678 31.8639 126.31 33.7958 126.31 36.0708C126.31 38.3819 125.66 40.4042 124.36 42.1375C123.096 43.8347 121.291 45.1528 118.943 46.0917C116.632 47.0306 114.809 47.5 111.667 47.5ZM111.667 41.975C114.267 41.975 115.423 41.4333 116.939 40.35C118.456 39.2667 119.214 37.7681 119.214 35.8542C119.214 33.9764 118.456 32.4958 116.939 31.4125C115.423 30.3292 114.267 29.7875 111.667 29.7875C109.067 29.7875 107.929 30.3292 106.449 31.4125C104.968 32.4958 104.228 33.9764 104.228 35.8542C104.228 37.7681 104.968 39.2667 106.449 40.35C107.929 41.4333 109.067 41.975 111.667 41.975ZM111.667 29.0292C108.742 29.0292 107.135 28.65 105.041 27.8917C102.946 27.0972 101.321 25.9597 100.166 24.4792C99.0461 22.9625 98.4864 21.1569 98.4864 19.0625C98.4864 16.8958 99.0642 15.0361 100.22 13.4833C101.411 11.8944 103.073 10.6667 105.203 9.8C107.334 8.93333 108.886 8.5 111.667 8.5C114.484 8.5 116.054 8.93333 118.185 9.8C120.316 10.6667 121.977 11.8944 123.168 13.4833C124.36 15.0361 124.956 16.8958 124.956 19.0625C124.956 21.1569 124.378 22.9625 123.223 24.4792C122.103 25.9597 120.478 27.0972 118.348 27.8917C116.217 28.65 114.592 29.0292 111.667 29.0292ZM111.667 24.6958C113.906 24.6958 114.773 24.2264 116.073 23.2875C117.373 22.3125 118.023 21.0125 118.023 19.3875C118.023 17.6903 117.354 16.3722 116.018 15.4333C114.682 14.4944 113.834 14.025 111.667 14.025C109.5 14.025 108.67 14.4944 107.37 15.4333C106.07 16.3722 105.42 17.6903 105.42 19.3875C105.42 21.0125 106.052 22.3125 107.316 23.2875C108.616 24.2264 109.464 24.6958 111.667 24.6958Z" fill="#050D3D"/>
<path d="M137.848 46.9583V12.6528L140.936 14.0431L129.831 18.5569V12.6528L137.848 9.04167H144.89V46.9583H137.848Z" fill="#050D3D"/>
<path d="M156.636 47.3375C155.408 47.3375 154.361 46.9222 153.495 46.0917C152.628 45.225 152.195 44.1417 152.195 42.8417C152.195 41.4694 152.628 40.3861 153.495 39.5917C154.361 38.7611 155.408 38.3458 156.636 38.3458C157.864 38.3458 158.911 38.7611 159.778 39.5917C160.645 40.3861 161.078 41.4694 161.078 42.8417C161.078 44.1417 160.645 45.225 159.778 46.0917C158.911 46.9222 157.864 47.3375 156.636 47.3375Z" fill="#050D3D"/>
<path d="M167.431 46.9583V18.0333H174.653V46.9583H167.431Z" fill="#050D3D"/>
<path d="M195.351 47.3375C192.39 47.3375 189.754 46.7056 187.443 45.4417C185.132 44.1417 183.308 42.3722 181.972 40.1333C180.636 37.8944 179.968 35.3486 179.968 32.4958C179.968 29.6069 180.636 27.0611 181.972 24.8583C183.308 22.6194 185.132 20.8681 187.443 19.6042C189.754 18.3403 192.39 17.7083 195.351 17.7083C198.349 17.7083 201.003 18.3403 203.314 19.6042C205.661 20.8681 207.485 22.6014 208.785 24.8042C210.121 27.0069 210.789 29.5708 210.789 32.4958C210.789 35.3486 210.121 37.8944 208.785 40.1333C207.485 42.3722 205.661 44.1417 203.314 45.4417C201.003 46.7056 198.349 47.3375 195.351 47.3375ZM195.351 41.5417C197.013 41.5417 198.493 41.1806 199.793 40.4583C201.093 39.7361 202.104 38.6889 202.826 37.3167C203.585 35.9444 203.964 34.3375 203.964 32.4958C203.964 30.6181 203.585 29.0111 202.826 27.675C202.104 26.3028 201.093 25.2556 199.793 24.5333C198.493 23.8111 197.031 23.45 195.406 23.45C193.744 23.45 192.264 23.8111 190.964 24.5333C189.7 25.2556 188.689 26.3028 187.931 27.675C187.172 29.0111 186.793 30.6181 186.793 32.4958C186.793 34.3375 187.172 35.9444 187.931 37.3167C188.689 38.6889 189.7 39.7361 190.964 40.4583C192.264 41.1806 193.726 41.5417 195.351 41.5417Z" fill="#050D3D"/>
<path d="M167.431 9.04166H174.653V15.5H167.431V9.04166Z" fill="#050D3D"/>
</svg>
