
<svg width="20" height="18" viewBox="0 0 20 18" fill="none" xmlns="http://www.w3.org/2000/svg">
<path fill-rule="evenodd" clip-rule="evenodd" d="M4.76867 0.923185C4.76867 0.413324 4.35535 0 3.84549 0C3.33563 0 2.9223 0.413324 2.9223 0.923185V3.22903H2.341C1.13244 3.22903 0.15271 4.17377 0.15271 5.33917V15.8899C0.15271 17.0553 1.13244 18 2.341 18H17.3855C18.7451 18 19.8473 16.8978 19.8473 15.5382V5.33917C19.8473 4.17377 18.8676 3.22903 17.659 3.22903H17.0778V0.923185C17.0778 0.413324 16.6644 0 16.1546 0C15.6447 0 15.2314 0.413324 15.2314 0.923185V3.22903H4.76867V0.923185ZM8.76908 8.79912C8.76908 9.47893 8.21798 10.03 7.53816 10.03C6.85835 10.03 6.30725 9.47893 6.30725 8.79912C6.30725 8.11931 6.85835 7.56821 7.53816 7.56821C8.21798 7.56821 8.76908 8.11931 8.76908 8.79912ZM13.6928 8.79912C13.6928 9.47893 13.1417 10.03 12.4619 10.03C11.7821 10.03 11.231 9.47893 11.231 8.79912C11.231 8.11931 11.7821 7.56821 12.4619 7.56821C13.1417 7.56821 13.6928 8.11931 13.6928 8.79912Z" fill="#0078E7"/>
</svg>
