<svg width="56" height="56" viewBox="0 0 56 56" fill="none" xmlns="http://www.w3.org/2000/svg">
<rect width="56" height="56" rx="16" fill="#005AC5"/>
<path fill-rule="evenodd" clip-rule="evenodd" d="M26.6166 7.99995C24.4755 8.12537 23.0045 8.57439 21.1193 9.34701C18.8688 10.2325 17.1164 11.5053 15.862 13.1655C14.6076 14.7888 13.9804 16.7442 13.9804 19.0316C13.9804 21.2083 14.5892 23.0899 15.8067 24.6763C16.5313 25.5715 17.4161 26.3435 18.4609 26.9924C16.882 27.781 15.5914 28.7983 14.5892 30.0443C13.261 31.7045 12.5969 33.7337 12.5969 36.1317C12.5969 38.5298 13.2795 40.6328 14.6445 42.4406C16.0096 44.2114 17.9096 45.595 20.3446 46.5911C22.4282 47.4119 24.1336 47.8815 26.6166 48V41.2823C23.9756 40.824 21.6727 39.0186 21.6727 35.855C21.6727 32.7211 23.9756 30.9327 26.6166 30.4788V29.4051V24.9247V24.0129C24.5292 23.4839 22.8902 21.7309 22.8902 19.419C22.8902 16.7955 24.5976 15.3097 26.6166 14.8814V7.99995ZM29.3836 23.9891C31.4498 23.4372 33.1098 21.7211 33.1098 19.419C33.1098 16.9554 31.4025 15.4335 29.3836 14.9332V8.00466C31.528 8.13631 32.9935 8.58376 34.8253 9.34701C37.0758 10.2325 38.8283 11.5053 40.0826 13.1655C41.3739 14.7888 42.0196 16.7442 42.0196 19.0316C42.0196 21.2083 41.3924 23.0899 40.138 24.6763C39.4341 25.5722 38.5576 26.3447 37.5084 26.9939C39.0986 27.7823 40.381 28.7991 41.3555 30.0443C42.7205 31.7045 43.4031 33.7337 43.4031 36.1317C43.4031 38.5298 42.7205 40.6328 41.3555 42.4406C39.9904 44.2114 38.0719 45.595 35.6001 46.5911C33.5431 47.4014 31.8416 47.8694 29.3836 47.9952V41.2772C32.0245 40.8095 34.3272 38.9984 34.3272 35.855C34.3272 32.7414 32.0245 30.9474 29.3836 30.4839V29.4004V24.9289V23.9891Z" fill="white"/>
</svg>
