
<svg width="23" height="21" viewBox="0 0 23 21" fill="none" xmlns="http://www.w3.org/2000/svg">
<path d="M2.76898 21C2.21898 21 1.74832 20.8043 1.35698 20.413C0.964982 20.021 0.768982 19.55 0.768982 19V9C0.768982 8.44771 1.2167 8 1.76898 8C2.32127 8 2.76898 8.44772 2.76898 9V19H18.769C19.3213 19 19.769 19.4477 19.769 20C19.769 20.5523 19.3213 21 18.769 21H2.76898ZM6.76898 17C6.21898 17 5.74831 16.8043 5.35698 16.413C4.96498 16.021 4.76898 15.55 4.76898 15V4H9.76898V2C9.76898 1.45 9.96498 0.979 10.357 0.587C10.7483 0.195667 11.219 0 11.769 0H15.769C16.319 0 16.79 0.195667 17.182 0.587C17.5733 0.979 17.769 1.45 17.769 2V4H22.769V15C22.769 15.55 22.5733 16.021 22.182 16.413C21.79 16.8043 21.319 17 20.769 17H6.76898ZM6.76898 15H20.769V6H6.76898V15ZM11.769 4H15.769V2H11.769V4Z" fill="#005AC5"/>
</svg>
