<svg width="47" height="45" viewBox="0 0 47 45" fill="none" xmlns="http://www.w3.org/2000/svg">
<path d="M34.253 0.369423C34.3853 0.126999 34.6893 0.0372244 34.9289 0.174477C38.2049 2.05095 40.9942 4.67517 43.0675 7.83584C45.2324 11.136 46.5499 14.9191 46.9035 18.85C47.2571 22.781 46.6357 26.7384 45.0945 30.3719C43.5533 34.0054 41.1397 37.2027 38.0677 39.6806C34.9957 42.1585 31.3599 43.8405 27.4826 44.5776C23.6052 45.3148 19.6059 45.0843 15.8388 43.9067C12.0718 42.729 8.65334 40.6405 5.88626 37.8261C3.23612 35.1307 1.2618 31.8491 0.121311 28.2502C0.0378916 27.9869 0.189991 27.7088 0.454913 27.6309L3.40976 26.7618C3.67468 26.6839 3.952 26.8357 4.03654 27.0986C4.98698 30.054 6.61587 32.7487 8.7956 34.9657C11.0923 37.3016 13.9296 39.0351 17.0562 40.0125C20.1829 40.99 23.5023 41.1813 26.7205 40.5694C29.9387 39.9576 32.9564 38.5615 35.5062 36.5049C38.056 34.4482 40.0592 31.7945 41.3384 28.7787C42.6177 25.7629 43.1334 22.4782 42.8399 19.2155C42.5465 15.9528 41.4529 12.8128 39.656 10.0737C37.9507 7.47411 35.6619 5.31172 32.9747 3.75722C32.7356 3.61894 32.6459 3.31577 32.7782 3.07334L34.253 0.369423Z" fill="#0078E7"/>
</svg>
