<svg width="16" height="20" viewBox="0 0 16 20" fill="none" xmlns="http://www.w3.org/2000/svg">
<path d="M6.24289 15.2929C6.63342 15.6834 7.26658 15.6834 7.65711 15.2929L11.8929 11.0571C12.2834 10.6666 12.2834 10.0334 11.8929 9.64289L11.8571 9.60711C11.4666 9.21658 10.8334 9.21658 10.4429 9.60711L7.63211 12.4179C7.24158 12.8084 6.60842 12.8084 6.21789 12.4179L5.53211 11.7321C5.14158 11.3416 4.50302 11.347 4.1125 11.7375C3.72198 12.128 3.71658 12.7666 4.10711 13.1571L6.24289 15.2929ZM2 20C1.45 20 0.979333 19.8043 0.588 19.413C0.196 19.021 0 18.55 0 18V2C0 1.45 0.196 0.979 0.588 0.587C0.979333 0.195667 1.45 0 2 0H9.58579C9.851 0 10.1054 0.105357 10.2929 0.292893L15.7071 5.70711C15.8946 5.89464 16 6.149 16 6.41421V18C16 18.55 15.8043 19.021 15.413 19.413C15.021 19.8043 14.55 20 14 20H2ZM10 7C9.44771 7 9 6.55228 9 6V2H2V17C2 17.5523 2.44772 18 3 18H13C13.5523 18 14 17.5523 14 17V7H10Z" fill="#C2C2C2"/>
</svg>
