<svg width="23" height="15" viewBox="0 0 23 15" fill="none" xmlns="http://www.w3.org/2000/svg">
<path d="M11.1406 0.416687C6.14062 0.416687 1.87063 3.26752 0.140625 7.29169C1.87063 11.3159 6.14062 14.1667 11.1406 14.1667C16.1406 14.1667 20.4106 11.3159 22.1406 7.29169C20.4106 3.26752 16.1406 0.416687 11.1406 0.416687ZM11.1406 11.875C8.38063 11.875 6.14062 9.82169 6.14062 7.29169C6.14062 4.76169 8.38063 2.70835 11.1406 2.70835C13.9006 2.70835 16.1406 4.76169 16.1406 7.29169C16.1406 9.82169 13.9006 11.875 11.1406 11.875ZM11.1406 4.54169C9.48063 4.54169 8.14062 5.77002 8.14062 7.29169C8.14062 8.81335 9.48063 10.0417 11.1406 10.0417C12.8006 10.0417 14.1406 8.81335 14.1406 7.29169C14.1406 5.77002 12.8006 4.54169 11.1406 4.54169Z" fill="#0078E7"/>
</svg>
