<svg width="18" height="18" viewBox="0 0 18 18" fill="none" xmlns="http://www.w3.org/2000/svg">
<path d="M4 13C4 13.5523 4.44772 14 5 14C5.55228 14 6 13.5523 6 13V10C6 9.44771 5.55228 9 5 9C4.44772 9 4 9.44771 4 10V13ZM12 13C12 13.5523 12.4477 14 13 14C13.5523 14 14 13.5523 14 13V5C14 4.44772 13.5523 4 13 4C12.4477 4 12 4.44772 12 5V13ZM8 13C8 13.5523 8.44771 14 9 14C9.55229 14 10 13.5523 10 13V12C10 11.4477 9.55229 11 9 11C8.44771 11 8 11.4477 8 12V13ZM8 8C8 8.55229 8.44771 9 9 9C9.55229 9 10 8.55229 10 8C10 7.44772 9.55229 7 9 7C8.44771 7 8 7.44772 8 8ZM2 18C1.45 18 0.979 17.8043 0.587 17.413C0.195667 17.021 0 16.55 0 16V2C0 1.45 0.195667 0.979 0.587 0.587C0.979 0.195667 1.45 0 2 0H16C16.55 0 17.021 0.195667 17.413 0.587C17.8043 0.979 18 1.45 18 2V16C18 16.55 17.8043 17.021 17.413 17.413C17.021 17.8043 16.55 18 16 18H2ZM2 16H16V2H2V16Z" fill="#858585"/>
</svg>
