
<svg width="20" height="19" viewBox="0 0 20 19" fill="none" xmlns="http://www.w3.org/2000/svg">
<path fill-rule="evenodd" clip-rule="evenodd" d="M3.84549 0.0979004C4.35535 0.0979004 4.76867 0.511224 4.76867 1.02109V3.32694H15.2314V1.02109C15.2314 0.511224 15.6447 0.0979004 16.1546 0.0979004C16.6644 0.0979004 17.0778 0.511224 17.0778 1.02109V3.32694H17.659C18.8675 3.32694 19.8473 4.27168 19.8473 5.43708V15.6361C19.8473 16.9957 18.7451 18.0979 17.3854 18.0979H2.34094C1.13238 18.0979 0.152649 17.1532 0.152649 15.9878V5.43708C0.152649 4.27168 1.13238 3.32694 2.34094 3.32694H2.9223V1.02109C2.9223 0.511224 3.33563 0.0979004 3.84549 0.0979004ZM17.659 5.32694H2.34094C2.26496 5.32694 2.21269 5.35495 2.18186 5.38468C2.15263 5.41285 2.15264 5.4301 2.15265 5.43685V15.9878C2.15264 15.9945 2.15263 16.012 2.18185 16.0402C2.21269 16.0699 2.26496 16.0979 2.34094 16.0979H17.3854C17.6405 16.0979 17.8473 15.8911 17.8473 15.6361V5.43708C17.8473 5.43033 17.8473 5.41285 17.8181 5.38468C17.7872 5.35495 17.7349 5.32694 17.659 5.32694Z" fill="#005AC5"/>
<path d="M8.76902 8.89701C8.76902 9.57682 8.21792 10.1279 7.5381 10.1279C6.85829 10.1279 6.30719 9.57682 6.30719 8.89701C6.30719 8.21719 6.85829 7.66609 7.5381 7.66609C8.21792 7.66609 8.76902 8.21719 8.76902 8.89701Z" fill="#005AC5"/>
<path d="M13.6928 8.89701C13.6928 9.57682 13.1417 10.1279 12.4619 10.1279C11.7821 10.1279 11.231 9.57682 11.231 8.89701C11.231 8.21719 11.7821 7.66609 12.4619 7.66609C13.1417 7.66609 13.6928 8.21719 13.6928 8.89701Z" fill="#005AC5"/>
</svg>
