<svg width="18" height="18" viewBox="0 0 18 18" fill="none" xmlns="http://www.w3.org/2000/svg">
<path d="M12 6C10.8954 6 10 5.10457 10 4V2C10 0.89543 10.8954 0 12 0H16C17.1046 0 18 0.895431 18 2V4C18 5.10457 17.1046 6 16 6H12ZM2 10C0.895431 10 0 9.10457 0 8V2C0 0.89543 0.895431 0 2 0H6C7.10457 0 8 0.895431 8 2V8C8 9.10457 7.10457 10 6 10H2ZM12 18C10.8954 18 10 17.1046 10 16V10C10 8.89543 10.8954 8 12 8H16C17.1046 8 18 8.89543 18 10V16C18 17.1046 17.1046 18 16 18H12ZM2 18C0.895431 18 0 17.1046 0 16V14C0 12.8954 0.895431 12 2 12H6C7.10457 12 8 12.8954 8 14V16C8 17.1046 7.10457 18 6 18H2ZM2 8H6V2H2V8ZM12 16H16V10H12V16ZM12 4H16V2H12V4ZM2 16H6V14H2V16Z" fill="#858585"/>
</svg>
